Coordinates
version=1
nRows=28
nColumns=33
inDegrees=yes

Units are S.I. units (second, meters, Newtons, ...)
Angles are in degrees.

endheader
time	ground_thorax_rot_x	ground_thorax_rot_y	ground_thorax_rot_z	ground_thorax_tx	ground_thorax_ty	ground_thorax_tz	clav_prot_r	clav_elev_r	scapula_abduction_r	scapula_elevation_r	scapula_upward_rot_r	scapula_winging_r	shoulder_elv_r	plane_of_elev_r	axial_rot_r	elbow_flexion_r	pro_sup_r	wrist_flex_r	wrist_dev_r	clav_prot_l	clav_elev_l	scapula_abduction_l	scapula_elevation_l	scapula_upward_rot_l	scapula_winging_l	shoulder_elv_l	plane_of_elev_l	axial_rot_l	elbow_flexion_l	pro_sup_l	wrist_flex_l	wrist_dev_l	
3.9000	37.479142	4.199208	9.200743	-59.686800	789.943521	0.501397	15.591419	42.040205	45.000000	42.876035	-22.807726	-1878.991587	-2993.503005	145.544307	-160.562836	9.069113	30.683676	16.717871	12.684465	5.325116	-45.000000	-45.000000	45.000000	-7.071908	2966.098815	-1902.455137	137.872144	180.000000	-356.965795	30.723541	10.363798	-18.548437	
3.9100	37.483268	3.981544	9.199913	-59.585463	790.838916	0.736483	15.413674	41.868571	45.000000	42.871604	-22.536944	-1879.105923	-2993.535873	145.553708	-160.093165	9.097531	29.743107	16.703644	12.760949	5.269661	-45.000000	-45.000000	45.000000	-6.763733	2966.130865	-1902.376208	137.848014	180.000000	-356.984390	30.154701	10.401932	-18.545203	
3.9200	37.482800	3.781849	9.204431	-59.592983	791.743128	0.970412	15.258445	41.668275	45.000000	42.862338	-22.291114	-1879.229039	-2993.544814	145.575972	-159.659264	9.133129	28.807983	16.724654	12.883387	5.221129	-45.000000	-45.000000	45.000000	-6.479724	2966.164583	-1902.283570	137.827715	180.000000	-356.968559	29.543830	10.454783	-18.544454	
3.9300	37.523403	3.555520	9.189808	-59.836602	792.675385	1.203925	15.139235	41.690873	45.000000	42.953729	-22.108782	-1879.315823	-2993.527802	145.588108	-159.282285	9.204484	27.892697	16.710452	12.890878	5.140581	-45.000000	-45.000000	45.000000	-6.179161	2966.235329	-1902.214076	137.813372	180.000000	-356.928361	28.850354	10.485364	-18.549156	
3.9400	37.591037	3.328800	9.174625	-60.332819	793.631077	1.434993	15.055720	41.847913	45.000000	43.118228	-22.007498	-1879.382445	-2993.475296	145.596368	-158.989333	9.306037	26.981595	16.691439	12.846312	5.049732	-45.000000	-45.000000	45.000000	-5.893641	2966.337322	-1902.153212	137.802755	180.000000	-356.847488	28.055754	10.509060	-18.560189	
3.9500	37.681422	3.109032	9.164913	-61.115649	794.610558	1.661760	15.022074	42.118769	45.000000	43.353674	-22.002684	-1879.433051	-2993.385643	145.599118	-158.808666	9.435904	26.069589	16.675292	12.761431	4.956445	-45.000000	-45.000000	45.000000	-5.639449	2966.471870	-1902.094283	137.793272	180.000000	-356.720458	27.144754	10.528190	-18.578423	
3.9600	37.778814	2.904036	9.169128	-62.189664	795.611064	1.881539	15.013936	42.418164	45.000000	43.623707	-22.073482	-1879.491479	-2993.263256	145.595984	-158.742608	9.584385	25.173104	16.674288	12.663614	4.869159	-45.000000	-45.000000	45.000000	-5.410086	2966.641936	-1902.022073	137.779125	180.000000	-356.555448	26.134745	10.547086	-18.608043	
3.9700	37.875812	2.728243	9.197190	-63.547219	796.631433	2.091430	15.075730	42.715750	45.000000	43.921625	-22.245764	-1879.562984	-2993.112812	145.580319	-158.838583	9.737396	24.278584	16.694812	12.570810	4.805826	-45.000000	-45.000000	45.000000	-5.239484	2966.845339	-1901.928369	137.753598	180.000000	-356.354659	25.024430	10.566498	-18.644422	
3.9800	37.960215	2.570564	9.240454	-65.181064	797.675119	2.288094	15.134158	42.959232	44.999999	44.208067	-22.453806	-1879.666976	-2992.943120	145.561202	-159.051251	9.890668	23.436055	16.741830	12.492619	4.753041	-45.000000	-45.000000	45.000000	-5.083161	2967.081434	-1901.802473	137.721628	180.000000	-356.137158	23.871306	10.585433	-18.694465	
3.9900	38.025672	2.431647	9.293637	-67.085326	798.748754	2.468692	15.199455	43.145560	44.999999	44.466371	-22.678027	-1879.811459	-2992.760114	145.542726	-159.365446	10.037178	22.673389	16.818617	12.429791	4.711866	-45.000000	-45.000000	45.000000	-4.944007	2967.345704	-1901.638282	137.683176	180.000000	-355.910144	22.716462	10.598955	-18.756845	
4.0000	38.064874	2.308762	9.354432	-69.254438	799.860144	2.631378	15.222549	43.259739	44.999998	44.667384	-22.878549	-1880.007161	-2992.562413	145.535675	-159.725694	10.181289	22.036530	16.929470	12.385117	4.673734	-45.000000	-44.999999	45.000000	-4.803182	2967.636192	-1901.431774	137.646222	180.000000	-355.676057	21.618747	10.604935	-18.836213	
4.0100	38.082087	2.213815	9.431037	-71.684667	801.016426	2.777288	15.263359	43.343009	44.999996	44.826167	-23.101534	-1880.243942	-2992.345706	145.530685	-160.150740	10.319016	21.505570	17.064734	12.342953	4.652614	-45.000000	-44.999999	45.000000	-4.702914	2967.951449	-1901.187484	137.605955	180.000000	-355.435016	20.576488	10.597774	-18.923235	
4.0200	38.070370	2.158295	9.540503	-74.372192	802.222729	2.909543	15.314529	43.363925	44.999994	44.925957	-23.366705	-1880.520557	-2992.096964	145.527265	-160.616868	10.456646	21.083933	17.223498	12.309421	4.657769	-45.000000	-44.999998	45.000000	-4.665038	2968.289886	-1900.898952	137.565070	180.000000	-355.188575	19.597598	10.581146	-19.015356	
4.0300	38.034502	2.133639	9.671737	-77.313775	803.481285	3.033423	15.389560	43.338492	44.999988	44.978440	-23.671693	-1880.834967	-2991.823596	145.518944	-161.087162	10.591174	20.747518	17.397864	12.273123	4.687333	-45.000000	-44.999997	45.000000	-4.687377	2968.649704	-1900.570019	137.517605	180.000000	-354.950461	18.677604	10.555955	-19.106232	
4.0400	37.978922	2.139059	9.829033	-80.503975	804.791181	3.153320	15.482295	43.271525	44.999979	44.994909	-24.026051	-1881.177867	-2991.525096	145.508400	-161.517522	10.732690	20.470731	17.583102	12.231766	4.742106	-45.000000	-44.999994	45.000000	-4.778624	2969.031884	-1900.206627	137.467809	180.000000	-354.717350	17.816431	10.525986	-19.195557	
4.0500	37.913922	2.156941	9.990034	-83.934556	806.148334	3.271596	15.551860	43.185951	44.999963	45.000000	-24.402209	-1881.538363	-2991.216931	145.504361	-161.856207	10.879063	20.218311	17.776208	12.181278	4.799803	-45.000000	-44.999989	45.000000	-4.891651	2969.433816	-1899.828242	137.424047	180.000000	-354.503323	17.016218	10.493140	-19.283220	
4.0600	37.841468	2.193920	10.164291	-87.592048	807.546152	3.385616	15.606115	43.088073	44.999933	45.000000	-24.815570	-1881.906997	-2990.898078	145.512409	-162.078429	11.038348	19.972962	17.971905	12.125953	4.872478	-45.000000	-44.999980	45.000000	-5.056756	2969.854147	-1899.437612	137.388265	180.000000	-354.296282	16.283258	10.459174	-19.371393	
4.0700	37.765252	2.237843	10.332997	-91.459348	808.975520	3.489577	15.612469	42.990201	44.999881	45.000000	-25.221412	-1882.285276	-2990.589415	145.539994	-162.147133	11.200371	19.732816	18.168010	12.067829	4.946838	-45.000000	-44.999965	45.000000	-5.243175	2970.287133	-1899.045821	137.364913	180.000000	-354.103206	15.635491	10.423689	-19.463021	
4.0800	37.683519	2.302997	10.511013	-95.516586	810.424890	3.575733	15.628361	42.889740	44.999786	45.000000	-25.665175	-1882.668728	-2990.285282	145.573457	-162.127085	11.356410	19.487121	18.356913	12.007392	5.043067	-45.000000	-44.999936	45.000000	-5.500215	2970.733448	-1898.649187	137.344076	180.000000	-353.915990	15.056707	10.386440	-19.554588	
4.0900	37.595383	2.389176	10.691369	-99.742649	811.880181	3.637381	15.622413	42.776858	44.999617	45.000000	-26.134098	-1883.051309	-2989.996315	145.618833	-162.058828	11.491563	19.252651	18.541325	11.952150	5.147849	-45.000000	-44.999886	45.000000	-5.800340	2971.188134	-1898.260093	137.334677	180.000000	-353.744218	14.535746	10.348447	-19.644607	
4.1000	37.500127	2.514509	10.889279	-104.115101	813.325299	3.669097	15.657643	42.650550	44.999314	45.000000	-26.677664	-1883.431193	-2989.715127	145.659064	-162.028387	11.594444	19.048053	18.715824	11.902968	5.286221	-45.000000	-44.999796	45.000000	-6.200231	2971.648796	-1897.870872	137.324959	180.000000	-353.581885	14.040333	10.310038	-19.725977	
4.1100	37.400018	2.674829	11.092082	-108.609707	814.742642	3.667347	15.688504	42.512875	44.998771	45.000000	-27.245660	-1883.811113	-2989.467988	145.706963	-162.054013	11.652673	18.921633	18.886952	11.865947	5.438287	-45.000000	-44.999635	45.000000	-6.656649	2972.109021	-1897.497092	137.329042	180.000000	-353.436600	13.563538	10.270693	-19.799114	
4.1200	37.296883	2.877328	11.304957	-113.199314	816.114020	3.629065	15.753418	42.376322	44.997799	45.000000	-27.852748	-1884.191354	-2989.254591	145.753212	-162.172175	11.657788	18.926473	19.052837	11.840271	5.630799	-45.000000	-44.999346	45.000000	-7.211424	2972.566339	-1897.131751	137.334039	180.000000	-353.305972	13.100172	10.237772	-19.860261	
4.1300	37.191988	3.121850	11.520479	-117.852211	817.421471	3.550469	15.830476	42.236661	44.996057	45.000000	-28.478582	-1884.565621	-2989.086331	145.807941	-162.445969	11.599380	19.128943	19.222829	11.833234	5.854216	-45.000000	-44.998829	45.000000	-7.839687	2973.019057	-1896.787194	137.345425	180.000000	-353.189765	12.645002	10.215622	-19.910297	
4.1400	37.087722	3.411487	11.740808	-122.533738	818.648420	3.426666	15.954637	42.102366	44.992939	45.000000	-29.139371	-1884.935330	-2988.960371	145.854556	-162.968438	11.462225	19.599503	19.401019	11.850357	6.124856	-45.000000	-44.997902	45.000000	-8.573128	2973.467501	-1896.458036	137.348358	180.000000	-353.084563	12.194393	10.209475	-19.947512	
4.1500	36.982647	3.750773	11.967804	-127.209666	819.780405	3.253123	16.102423	41.957723	44.987348	45.000000	-29.834221	-1885.292290	-2988.884128	145.897148	-163.877484	11.232187	20.438190	19.604747	11.894899	6.424488	-45.000000	-44.996242	45.000000	-9.383021	2973.915914	-1896.159476	137.348665	180.000000	-352.990683	11.743567	10.218280	-19.974827	
4.1600	36.884493	4.118023	12.179045	-131.854294	820.805473	3.029512	16.235188	41.823347	44.977344	45.000000	-30.510622	-1885.634616	-2988.857105	145.939457	-165.246975	10.895792	21.700022	19.851724	11.981110	6.715693	-45.000000	-44.993265	45.000000	-10.246344	2974.355408	-1895.891715	137.348361	180.000000	-352.911505	11.301425	10.240334	-19.998180	
4.1700	36.785193	4.527787	12.396637	-136.455882	821.714260	2.762710	16.350047	41.666693	44.959398	45.000000	-31.255225	-1885.938575	-2988.843662	145.969347	-167.214763	10.460108	23.519757	20.159664	12.075048	6.999279	-45.000000	-44.987945	45.000000	-11.161156	2974.798037	-1895.658656	137.343156	180.000000	-352.850090	10.876989	10.282385	-20.018854	
